<?xml version="1.0" encoding="utf-8"?>
<!-- Generator: Adobe Illustrator 14.0.0, SVG Export Plug-In . SVG Version: 6.00 Build 43363)  -->
<!DOCTYPE svg PUBLIC "-//W3C//DTD SVG 1.1//EN" "http://www.w3.org/Graphics/SVG/1.1/DTD/svg11.dtd">
<svg version="1.1" id="Layer_1" xmlns="http://www.w3.org/2000/svg" xmlns:xlink="http://www.w3.org/1999/xlink" x="0px" y="0px"
	 width="800px" height="800px" viewBox="0 0 800 800" enable-background="new 0 0 800 800" xml:space="preserve">
<g id="Layer_2" display="none">
	<rect x="-16" y="-11.778" display="inline" width="825.555" height="825.555"/>
</g>
<g>
	<path fill="#FFFFFF" d="M465.356,301.502H164.288c-7.027,0-12.496,0.726-16.417,2.168c-3.93,1.452-7.123,3.408-9.602,5.885
		c-5.788,5.789-8.673,13.009-8.673,21.682c0,9.089,3.504,16.523,10.531,22.301c2.478,2.072,5.469,3.62,8.982,4.646
		c3.504,1.036,8.566,1.549,15.178,1.549h183.987c23.539,0,43.46,3.407,59.779,10.221c16.31,6.815,30.045,16.009,41.195,27.567
		c11.15,11.568,19.92,24.781,26.328,39.648c6.397,14.867,9.602,30.566,9.602,47.08c0,15.283-2.787,29.947-8.363,43.984
		c-5.575,14.043-13.115,26.637-22.61,37.787c-11.567,13.223-25.922,23.754-43.055,31.594c-17.142,7.85-38.098,11.77-62.876,11.77
		H23.665v-107.17h304.786c8.673,0,15.381-0.928,20.133-2.787c4.743-1.857,8.566-4.434,11.461-7.744
		c4.539-5.361,6.813-11.77,6.813-19.203c0-9.08-2.894-16.514-8.673-22.303c-2.894-3.299-6.504-5.672-10.84-7.123
		c-4.337-1.443-10.639-2.168-18.895-2.168H158.093c-28.09,0-50.7-3.408-67.833-10.223c-17.143-6.814-31.284-16-42.435-27.566
		c-11.151-11.557-19.823-24.673-26.019-39.337c-6.194-14.654-9.292-30.664-9.292-48.009c0-16.93,3.193-32.833,9.602-47.701
		c6.398-14.868,15.178-28.08,26.328-39.647c11.151-11.557,25.186-20.752,42.125-27.567c16.929-6.814,39.434-10.222,67.523-10.222
		h307.264V301.502z"/>
	<path fill="#FFFFFF" d="M312.962,301.502V190.615h380.981c16.93,0,31.177,2.584,42.745,7.744
		c11.557,5.169,21.265,12.292,29.115,21.372c7.018,7.85,12.39,16.629,16.106,26.328c3.716,9.708,5.575,20.133,5.575,31.284
		c0,8.266-1.549,17.036-4.646,26.328c-3.097,9.292-9.602,21.169-19.513,35.621L590.49,593.279c-2.479,3.311-4.337,6.193-5.576,8.672
		s-2.274,4.957-3.097,7.434H440.575c1.239-2.885,2.574-5.672,4.026-8.361c1.442-2.682,3.194-5.672,5.266-8.982l190.8-270.096
		c1.646-2.062,2.682-3.92,3.099-5.575c0.406-1.646,0.618-3.3,0.618-4.956c0-2.478-0.725-4.743-2.167-6.814
		c-1.452-2.062-4.443-3.098-8.982-3.098H312.962z"/>
</g>
</svg>
