<?xml version="1.0" standalone="no"?>
<!DOCTYPE svg PUBLIC "-//W3C//DTD SVG 20010904//EN"
 "http://www.w3.org/TR/2001/REC-SVG-20010904/DTD/svg10.dtd">
<svg version="1.0" xmlns="http://www.w3.org/2000/svg"
 width="800.000000pt" height="800.000000pt" viewBox="0 0 800.000000 800.000000"
 preserveAspectRatio="xMidYMid meet">
<metadata>
Created by potrace 1.11, written by Peter Selinger 2001-2013
</metadata>
<g transform="translate(0.000000,800.000000) scale(0.100000,-0.100000)"
fill="#000000" stroke="none">
<path d="M0 4000 l0 -4000 4000 0 4000 0 0 4000 0 4000 -4000 0 -4000 0 0
-4000z m7244 2062 c305 -89 534 -325 606 -625 27 -113 27 -294 0 -403 -42
-170 -87 -241 -1067 -1679 -509 -748 -935 -1379 -945 -1403 l-19 -42 -704 0
c-388 0 -705 3 -705 8 1 32 198 318 1030 1497 525 742 964 1365 977 1384 33
48 32 123 -2 156 l-24 25 -2424 0 c-2712 0 -2488 6 -2574 -73 -72 -66 -88
-105 -88 -218 0 -89 2 -99 30 -144 35 -56 98 -108 153 -127 28 -9 303 -14
1147 -18 1220 -7 1172 -5 1367 -70 405 -136 715 -475 819 -894 29 -118 37
-351 15 -476 -97 -556 -536 -970 -1101 -1039 -62 -8 -617 -11 -1792 -11
l-1703 0 0 535 0 535 1598 2 1597 3 61 28 c74 34 115 74 146 142 32 69 31 179
-1 253 -28 62 -109 141 -167 162 -32 12 -222 15 -1099 20 -1153 7 -1149 7
-1360 66 -387 108 -690 393 -823 774 -50 145 -65 255 -60 452 6 211 30 313
112 484 133 276 322 468 580 590 50 23 120 52 156 64 63 20 245 56 325 63 22
2 1350 3 2950 3 l2910 -1 79 -23z"/>
</g>
</svg>
